<svg xmlns="http://www.w3.org/2000/svg" xmlns:xlink="http://www.w3.org/1999/xlink" width="2000" zoomAndPan="magnify" viewBox="0 0 1500 749.999995" height="1000" preserveAspectRatio="xMidYMid meet" version="1.0"><defs><clipPath id="a31aad35d4"><path d="M 1167 0 L 1500 0 L 1500 329 L 1167 329 Z M 1167 0 " clip-rule="nonzero"/></clipPath><clipPath id="2c4b59648d"><path d="M 1286.636719 -240.960938 L 1801.433594 111.683594 L 1579.332031 435.90625 L 1064.535156 83.261719 Z M 1286.636719 -240.960938 " clip-rule="nonzero"/></clipPath><clipPath id="0050d52c7e"><path d="M 1286.636719 -240.960938 L 1801.433594 111.683594 L 1579.332031 435.90625 L 1064.535156 83.261719 Z M 1286.636719 -240.960938 " clip-rule="nonzero"/></clipPath><clipPath id="ded857c8ef"><path d="M 1244 0 L 1500 0 L 1500 264 L 1244 264 Z M 1244 0 " clip-rule="nonzero"/></clipPath><clipPath id="973c9ea1b3"><path d="M 1311.9375 -35.902344 L 1583.917969 209.011719 L 1498.097656 304.316406 L 1226.117188 59.402344 Z M 1311.9375 -35.902344 " clip-rule="nonzero"/></clipPath><clipPath id="eca1b09b44"><path d="M 1311.9375 -35.902344 L 1583.917969 209.011719 L 1498.097656 304.316406 L 1226.117188 59.402344 Z M 1311.9375 -35.902344 " clip-rule="nonzero"/></clipPath><clipPath id="91cfbda665"><path d="M 0 627 L 63 627 L 63 690.378906 L 0 690.378906 Z M 0 627 " clip-rule="nonzero"/></clipPath><clipPath id="d5985a477d"><path d="M 0 24.378906 L 63 24.378906 L 63 87 L 0 87 Z M 0 24.378906 " clip-rule="nonzero"/></clipPath><clipPath id="bf14b20d1e"><path d="M 390 397 L 451 397 L 451 443.945312 L 390 443.945312 Z M 390 397 " clip-rule="nonzero"/></clipPath><clipPath id="4f69979a47"><path d="M 1082 666 L 1269.300781 666 L 1269.300781 750 L 1082 750 Z M 1082 666 " clip-rule="nonzero"/></clipPath><clipPath id="608fbd0c6b"><path d="M 303 541 L 648 541 L 648 750 L 303 750 Z M 303 541 " clip-rule="nonzero"/></clipPath><clipPath id="41d4b79854"><path d="M 262.261719 609.8125 L 637.453125 524.574219 L 686.632812 741.058594 L 311.445312 826.296875 Z M 262.261719 609.8125 " clip-rule="nonzero"/></clipPath><clipPath id="2759c32b55"><path d="M 262.261719 609.8125 L 637.453125 524.574219 L 686.632812 741.058594 L 311.445312 826.296875 Z M 262.261719 609.8125 " clip-rule="nonzero"/></clipPath><clipPath id="cc7288ab19"><path d="M 216 660 L 462 660 L 462 750 L 216 750 Z M 216 660 " clip-rule="nonzero"/></clipPath><clipPath id="791f7e7d0e"><path d="M 201.40625 753.054688 L 441.339844 625.996094 L 485.5625 709.507812 L 245.628906 836.566406 Z M 201.40625 753.054688 " clip-rule="nonzero"/></clipPath><clipPath id="adccc0c610"><path d="M 201.40625 753.054688 L 441.339844 625.996094 L 485.5625 709.507812 L 245.628906 836.566406 Z M 201.40625 753.054688 " clip-rule="nonzero"/></clipPath><clipPath id="7516fbbec8"><path d="M 282.835938 0 L 378 0 L 378 80 L 282.835938 80 Z M 282.835938 0 " clip-rule="nonzero"/></clipPath><clipPath id="da32c9b86d"><path d="M 282.835938 79 L 378 79 L 378 173.605469 L 282.835938 173.605469 Z M 282.835938 79 " clip-rule="nonzero"/></clipPath><clipPath id="eff889a7b0"><path d="M 377 79 L 472 79 L 472 173.605469 L 377 173.605469 Z M 377 79 " clip-rule="nonzero"/></clipPath><clipPath id="f9abb42487"><path d="M 518 32 L 566.335938 32 L 566.335938 80 L 518 80 Z M 518 32 " clip-rule="nonzero"/></clipPath><clipPath id="8827271ce0"><path d="M 518 0 L 566.335938 0 L 566.335938 33 L 518 33 Z M 518 0 " clip-rule="nonzero"/></clipPath></defs><rect x="-150" width="1800" fill="#ffffff" y="-74.999999" height="899.999994" fill-opacity="1"/><rect x="-150" width="1800" fill="#013c5a" y="-74.999999" height="899.999994" fill-opacity="1"/><g clip-path="url(#a31aad35d4)"><g clip-path="url(#2c4b59648d)"><g clip-path="url(#0050d52c7e)"><path fill="#597252" d="M 1574.238281 275.605469 C 1519.5625 286.304688 1462.175781 275.496094 1411.324219 252.738281 C 1324.542969 213.886719 1238.636719 151.003906 1222.3125 56.335938 C 1220.425781 45.410156 1219.472656 34.0625 1219.546875 22.285156 C 1219.75 -9.378906 1222.835938 -73.214844 1268.453125 -70.175781 C 1277.144531 -69.59375 1284.675781 -64.214844 1291.660156 -59.007812 C 1347.34375 -17.554688 1376.902344 30.023438 1441.472656 55.539062 C 1502.449219 79.636719 1594.726562 82.464844 1658.835938 96.203125 C 1677.382812 100.175781 1697.628906 105.945312 1707.839844 121.929688 C 1718.925781 139.292969 1713.90625 162.4375 1704.808594 180.921875 C 1680.199219 230.898438 1628.914062 264.90625 1574.238281 275.605469 Z M 1755.476562 125.429688 C 1748.632812 76.199219 1699.832031 42.394531 1651.140625 32.421875 C 1602.453125 22.445312 1552.089844 29.957031 1502.398438 29.179688 C 1476.503906 28.769531 1449.636719 25.761719 1427.554688 12.238281 C 1401.996094 -3.417969 1386.476562 -30.742188 1367.921875 -54.277344 C 1350.800781 -75.992188 1330.382812 -95.109375 1307.597656 -110.773438 C 1283.855469 -127.09375 1251.699219 -139.542969 1227.210938 -124.367188 C 1191.652344 -102.332031 1203.597656 -53.765625 1188.226562 -21.011719 C 1173.300781 10.804688 1160.808594 34.398438 1172.007812 71.226562 C 1179.929688 97.269531 1195.808594 120.089844 1212.214844 141.8125 C 1249.238281 190.832031 1290.777344 237.28125 1341.3125 272.210938 C 1391.84375 307.136719 1452.195312 330.042969 1513.601562 328.425781 C 1587.691406 326.472656 1658.003906 288.59375 1708.925781 234.738281 C 1737.089844 204.957031 1761.121094 166.027344 1755.476562 125.429688 " fill-opacity="1" fill-rule="nonzero"/></g></g></g><g clip-path="url(#ded857c8ef)"><g clip-path="url(#973c9ea1b3)"><g clip-path="url(#eca1b09b44)"><path fill="#fdf4e4" d="M 1379.363281 71.417969 C 1415.65625 95.621094 1456.269531 117.167969 1479.070312 154.355469 C 1487.984375 168.890625 1497.621094 185.628906 1500.75 202.550781 C 1501.171875 204.828125 1501.441406 207.324219 1500.292969 209.335938 C 1496.25 216.433594 1489.871094 205.964844 1487.785156 203.148438 C 1466.558594 174.492188 1434.613281 154.78125 1403.082031 138.59375 C 1397.695312 135.828125 1392.269531 133.132812 1386.828125 130.480469 C 1353.390625 114.199219 1319.050781 99.65625 1286.746094 81.144531 C 1283.609375 79.347656 1280.410156 77.441406 1278.230469 74.558594 C 1274.183594 69.199219 1274.636719 61.324219 1278.15625 55.609375 C 1281.675781 49.890625 1287.734375 46.128906 1294.082031 43.949219 C 1308.761719 38.90625 1325.164062 41.539062 1339.464844 47.570312 C 1353.765625 53.601562 1366.449219 62.808594 1379.363281 71.417969 Z M 1334.964844 -6.628906 C 1324.496094 -11.214844 1312.570312 -13.226562 1301.527344 -10.277344 C 1291.753906 -7.664062 1283.355469 -1.40625 1276 5.539062 C 1266.578125 14.425781 1258.425781 24.65625 1251.863281 35.824219 C 1247.917969 42.542969 1244.472656 49.875 1244.277344 57.667969 C 1243.875 74.023438 1257.523438 87.144531 1271.234375 96.066406 C 1322.550781 129.457031 1388.929688 136.3125 1436.109375 175.332031 C 1455.609375 191.457031 1476.296875 214.59375 1486.394531 238.039062 C 1489.605469 245.496094 1491.015625 254.660156 1498.117188 259.589844 C 1515.214844 271.457031 1544.503906 252.496094 1540.5625 231.988281 C 1534.871094 202.378906 1519.484375 175.371094 1500.789062 151.71875 C 1482.097656 128.058594 1460.042969 107.320312 1438.832031 85.890625 C 1414.105469 60.921875 1390.367188 34.847656 1363.410156 12.300781 C 1354.644531 4.972656 1345.433594 -2.042969 1334.964844 -6.628906 " fill-opacity="1" fill-rule="nonzero"/></g></g></g><path fill="#728c6a" d="M 0.226562 424.785156 L 62.277344 424.785156 L 62.277344 486.480469 C 62.15625 486.480469 62.039062 486.480469 61.917969 486.480469 C 27.855469 486.480469 0.226562 458.851562 0.226562 424.785156 Z M 0.226562 424.785156 " fill-opacity="1" fill-rule="nonzero"/><path fill="#245373" d="M 62.253906 357.796875 L 62.253906 419.46875 L 0.941406 419.46875 C 0.941406 419.351562 0.941406 419.230469 0.941406 419.113281 C 0.941406 385.261719 28.378906 357.796875 62.253906 357.796875 Z M 62.253906 357.796875 " fill-opacity="1" fill-rule="nonzero"/><path fill="#245373" d="M 0.464844 218.746094 L 0.464844 218.390625 C 0.464844 184.539062 27.902344 157.097656 61.753906 157.097656 C 61.753906 157.21875 61.753906 157.335938 61.753906 157.457031 C 61.730469 191.308594 34.289062 218.746094 0.464844 218.746094 Z M 0.464844 218.746094 " fill-opacity="1" fill-rule="nonzero"/><path fill="#245373" d="M -0.0390625 689.660156 C -34.03125 689.660156 -61.566406 662.101562 -61.566406 628.128906 L -61.207031 628.128906 C -27.214844 628.128906 0.320312 655.6875 0.320312 689.660156 C 0.199219 689.660156 0.0820312 689.660156 -0.0390625 689.660156 Z M -0.0390625 689.660156 " fill-opacity="1" fill-rule="nonzero"/><g clip-path="url(#91cfbda665)"><path fill="#a2b9b3" d="M 62.371094 627.675781 L 62.371094 628.035156 C 62.371094 662.316406 34.578125 690.085938 0.320312 690.085938 C 0.320312 689.96875 0.320312 689.847656 0.320312 689.730469 C 0.296875 655.449219 28.09375 627.675781 62.371094 627.675781 Z M 62.371094 627.675781 " fill-opacity="1" fill-rule="nonzero"/></g><path fill="#f4a257" d="M -0.0390625 151.425781 C -34.316406 151.425781 -62.089844 123.628906 -62.089844 89.371094 L -61.730469 89.371094 C -27.453125 89.371094 0.320312 117.167969 0.320312 151.425781 C 0.175781 151.425781 0.0820312 151.425781 -0.0390625 151.425781 Z M -0.0390625 151.425781 " fill-opacity="1" fill-rule="nonzero"/><path fill="#a2b9b3" d="M 62.371094 89.183594 L 62.371094 89.539062 C 62.371094 123.820312 34.578125 151.59375 0.320312 151.59375 C 0.320312 151.472656 0.320312 151.355469 0.320312 151.234375 C 0.296875 116.953125 28.09375 89.183594 62.371094 89.183594 Z M 62.371094 89.183594 " fill-opacity="1" fill-rule="nonzero"/><path fill="#728c6a" d="M 61.945312 280.941406 C 27.664062 280.941406 -0.109375 253.144531 -0.109375 218.890625 L 0.25 218.890625 C 34.527344 218.890625 62.300781 246.683594 62.300781 280.941406 C 62.183594 280.941406 62.0625 280.941406 61.945312 280.941406 Z M 61.945312 280.941406 " fill-opacity="1" fill-rule="nonzero"/><path fill="#a2b9b3" d="M 0.128906 153 L 0.128906 153.355469 C 0.128906 187.636719 -27.667969 215.410156 -61.921875 215.410156 C -61.921875 215.289062 -61.921875 215.171875 -61.921875 215.050781 C -61.921875 180.769531 -34.152344 153 0.128906 153 Z M 0.128906 153 " fill-opacity="1" fill-rule="nonzero"/><g clip-path="url(#d5985a477d)"><path fill="#f4a257" d="M 62.230469 86.15625 C 28.234375 86.15625 0.679688 58.597656 0.679688 24.601562 L 1.035156 24.601562 C 35.03125 24.601562 62.585938 52.160156 62.585938 86.15625 C 62.46875 86.15625 62.347656 86.15625 62.230469 86.15625 Z M 62.230469 86.15625 " fill-opacity="1" fill-rule="nonzero"/></g><path fill="#245373" d="M 62.15625 551.847656 L -0.25 551.847656 L -0.25 489.792969 C -0.132812 489.792969 -0.0117188 489.792969 0.105469 489.792969 C 34.386719 489.792969 62.15625 517.589844 62.15625 551.847656 Z M 62.15625 551.847656 " fill-opacity="1" fill-rule="nonzero"/><path fill="#f4a257" d="M 0.941406 622.648438 L 0.941406 560.238281 L 62.992188 560.238281 C 62.992188 560.355469 62.992188 560.476562 62.992188 560.59375 C 62.992188 594.851562 35.195312 622.648438 0.941406 622.648438 Z M 0.941406 622.648438 " fill-opacity="1" fill-rule="nonzero"/><path fill="#f4a257" d="M 62.445312 284.804688 L 62.445312 347.214844 L 0.390625 347.214844 C 0.390625 347.09375 0.390625 346.976562 0.390625 346.855469 C 0.390625 312.574219 28.1875 284.804688 62.445312 284.804688 Z M 62.445312 284.804688 " fill-opacity="1" fill-rule="nonzero"/><path fill="#a2b9b3" d="M 0.296875 489.601562 L 0.296875 552.035156 L -61.757812 552.035156 C -61.757812 551.917969 -61.757812 551.796875 -61.757812 551.679688 C -61.757812 517.398438 -33.960938 489.601562 0.296875 489.601562 Z M 0.296875 489.601562 " fill-opacity="1" fill-rule="nonzero"/><path fill="#89bccf" d="M 344.058594 320.59375 C 323.148438 338.644531 324.292969 379.5 348.554688 392.355469 C 358.4375 397.640625 371.3125 400.457031 383.140625 398.695312 C 416.488281 394.027344 428.222656 351.238281 407.753906 327.375 C 392.140625 309.324219 361.878906 305.183594 344.058594 320.59375 Z M 344.058594 320.59375 " fill-opacity="1" fill-rule="evenodd"/><path fill="#8a9b63" d="M 406.785156 326.3125 C 405.8125 326.753906 404.933594 327.457031 403.960938 328.6875 C 401.136719 332.296875 389.757812 329.214844 389.757812 337.492188 C 389.757812 345.238281 385.609375 345.945312 388.523438 348.761719 C 389.582031 349.730469 395.667969 347 395.933594 352.636719 C 396.109375 356.863281 400.257812 355.71875 397.699219 362.585938 C 396.550781 365.75 397.519531 373.417969 396.019531 375.265625 C 393.550781 378.523438 400.960938 384.777344 405.109375 371.746094 C 407.484375 364.175781 412.695312 369.277344 416.136719 359.242188 C 416.578125 358.007812 417.285156 357.214844 417.902344 356.335938 C 417.988281 345.945312 414.8125 335.554688 407.753906 327.367188 C 407.402344 327.011719 407.136719 326.660156 406.785156 326.308594 Z M 344.058594 320.59375 C 334 329.222656 329.234375 342.957031 329.324219 355.902344 C 333.824219 358.808594 339.820312 360.128906 339.738281 361.363281 C 339.5625 362.769531 344.679688 366.382812 346.003906 367.085938 C 349.796875 369.023438 351.824219 385.136719 364.796875 385.753906 C 366.207031 385.753906 367.003906 380.910156 361.269531 378.972656 C 358.972656 378.183594 360.828125 372.191406 361.003906 371.839844 C 364.171875 366.910156 358.355469 363.652344 362.328125 361.894531 C 362.0625 359.167969 371.589844 355.292969 371.324219 353.972656 C 370.53125 348.425781 376.882812 351.242188 369.296875 345.609375 C 358.53125 337.773438 364.972656 337.070312 365.148438 334.074219 C 365.503906 327.117188 360.734375 326.941406 355.53125 327.117188 C 356.0625 326.589844 356.589844 326.0625 356.945312 325.269531 C 358.003906 323.066406 356.414062 322.1875 356.414062 319.195312 C 356.414062 316.640625 365.765625 315.757812 366.738281 315.230469 C 369.5625 313.824219 372.824219 314.261719 373.089844 311.179688 C 362.589844 310.742188 352.09375 313.734375 344.0625 320.601562 Z M 344.058594 320.59375 " fill-opacity="1" fill-rule="evenodd"/><path fill="#8a9b63" d="M 405.316406 269.984375 L 405.953125 270.886719 C 408.320312 274.519531 410.59375 278.0625 412.867188 281.238281 L 426.242188 273.25 L 425.511719 315.105469 L 387.121094 300.398438 C 391.214844 297.582031 395.308594 294.675781 399.402344 291.863281 L 386.667969 279.96875 L 378.570312 272.25 C 389.761719 261.265625 396.21875 263.988281 405.316406 269.980469 Z M 405.316406 269.984375 " fill-opacity="1" fill-rule="evenodd"/><path fill="#b1c588" d="M 334.449219 293.046875 C 327.988281 293.320312 321.621094 293.589844 315.253906 293.863281 C 328.71875 280.246094 342.183594 266.5625 355.644531 252.824219 C 377.296875 230.941406 392.851562 251.28125 405.316406 269.984375 C 396.21875 263.996094 389.761719 261.269531 378.570312 272.253906 C 364.289062 284.511719 352.554688 298.671875 340.542969 312.65625 C 338.453125 306.121094 336.449219 299.582031 334.449219 293.046875 Z M 334.449219 293.046875 " fill-opacity="1" fill-rule="evenodd"/><g clip-path="url(#bf14b20d1e)"><path fill="#8a9b63" d="M 439.183594 426.605469 L 438.09375 426.695312 C 433.816406 427.421875 429.722656 428.058594 425.992188 428.691406 L 427.628906 443.945312 L 390.328125 426.242188 L 419.257812 397.824219 C 420.167969 402.636719 421.078125 407.445312 421.988281 412.261719 L 437.816406 405.8125 L 448.097656 401.632812 C 453.371094 416.160156 448.277344 420.789062 439.179688 426.605469 Z M 439.183594 426.605469 " fill-opacity="1" fill-rule="evenodd"/></g><path fill="#b1c588" d="M 447.367188 353.605469 C 449.824219 347.796875 452.1875 341.894531 454.554688 336.082031 C 461.285156 353.699219 468.109375 371.402344 474.839844 389.015625 C 485.757812 417.433594 461.105469 423.0625 439.179688 426.605469 C 448.273438 420.792969 453.371094 416.164062 448.09375 401.632812 C 442.816406 383.839844 434.902344 367.585938 427.261719 351.058594 C 433.996094 351.964844 440.726562 352.785156 447.367188 353.601562 Z M 447.367188 353.605469 " fill-opacity="1" fill-rule="evenodd"/><path fill="#8a9b63" d="M 281.015625 375.054688 L 281.53125 374.085938 C 283.351562 369.835938 285.152344 365.855469 286.757812 362.136719 L 272.085938 354.828125 L 309.5625 331.726562 L 318.277344 373.945312 C 313.386719 372.003906 308.59375 369.96875 303.703125 368.023438 L 300.382812 385.917969 L 298.191406 397.425781 C 282.105469 393.773438 280.925781 386.511719 281.015625 375.054688 Z M 281.015625 375.054688 " fill-opacity="1" fill-rule="evenodd"/><path fill="#b1c588" d="M 341.585938 424.640625 C 345.433594 430.070312 349.277344 435.589844 353.210938 441.113281 C 333.417969 436.953125 313.691406 432.792969 294.019531 428.636719 C 262.265625 421.992188 271.523438 396.738281 281.015625 375.054688 C 280.925781 386.511719 282.105469 393.773438 298.191406 397.425781 C 317.15625 403.082031 336.335938 405.386719 355.484375 408.144531 C 350.855469 413.585938 346.21875 419.113281 341.585938 424.640625 Z M 341.585938 424.640625 " fill-opacity="1" fill-rule="evenodd"/><path fill="#349370" d="M 1105.550781 419.933594 L 1116.789062 439.605469 L 1113.851562 443.21875 C 1110.878906 446.835938 1106.304688 448.746094 1101.660156 448.265625 L 1099.199219 448.027344 C 1098.722656 447.996094 1098.277344 447.960938 1097.796875 447.960938 C 1094.347656 447.960938 1090.96875 449.253906 1088.40625 451.644531 C 1082.257812 457.269531 1072.589844 456.3125 1067.707031 449.5625 L 1067.398438 449.1875 C 1073.582031 439.265625 1080.515625 428.183594 1086.050781 419.453125 C 1090.660156 412.226562 1101.316406 412.5 1105.550781 419.933594 Z M 1105.550781 419.933594 " fill-opacity="1" fill-rule="nonzero"/><path fill="#349370" d="M 1226.359375 498.835938 C 1232.269531 495.082031 1239.921875 499.617188 1239.441406 506.609375 L 1235.824219 557.449219 L 1230.800781 542.75 C 1229.980469 540.332031 1227.726562 538.796875 1225.269531 538.796875 C 1224.925781 538.796875 1224.621094 538.796875 1224.277344 538.863281 C 1221.578125 539.308594 1218.949219 537.875 1217.890625 535.386719 L 1216.457031 532.078125 C 1217.550781 529.417969 1218.609375 526.625 1219.632812 523.625 C 1222.332031 515.746094 1224.621094 507.324219 1226.359375 498.835938 Z M 1226.359375 498.835938 " fill-opacity="1" fill-rule="nonzero"/><path fill="#8bcb8f" d="M 1235.824219 557.449219 L 1230.390625 633.757812 C 1215.566406 614.5625 1196.953125 598.367188 1175.605469 585.75 C 1173.417969 584.453125 1171.199219 583.191406 1168.945312 581.964844 L 1168.980469 581.894531 L 1173.761719 565.632812 C 1188.105469 570.371094 1204.089844 562.085938 1216.457031 532.078125 L 1217.890625 535.386719 C 1218.402344 536.648438 1219.359375 537.601562 1220.488281 538.21875 C 1221.613281 538.832031 1222.945312 539.070312 1224.277344 538.863281 C 1224.621094 538.796875 1224.925781 538.796875 1225.269531 538.796875 C 1227.726562 538.796875 1229.980469 540.332031 1230.800781 542.75 Z M 1235.824219 557.449219 " fill-opacity="1" fill-rule="nonzero"/><path fill="#8bcb8f" d="M 1173.761719 565.632812 L 1168.980469 581.894531 L 1168.945312 581.964844 C 1166.519531 580.632812 1164.09375 579.371094 1161.601562 578.179688 C 1149.03125 571.90625 1135.609375 566.859375 1121.570312 563.074219 C 1118.566406 562.222656 1115.527344 561.472656 1112.453125 560.753906 L 1116.789062 546.058594 C 1129.015625 550.253906 1142.203125 545.785156 1152.890625 527.679688 C 1155.660156 523.007812 1158.253906 517.417969 1160.644531 510.835938 C 1160.851562 510.257812 1161.054688 509.675781 1161.261719 509.0625 L 1161.292969 509.0625 C 1161.125 509.644531 1160.917969 510.257812 1160.78125 510.835938 C 1157.433594 522.191406 1156.171875 531.671875 1156.582031 539.375 C 1157.332031 553.867188 1163.925781 562.222656 1173.488281 565.527344 C 1173.589844 565.5625 1173.660156 565.597656 1173.761719 565.632812 Z M 1173.761719 565.632812 " fill-opacity="1" fill-rule="nonzero"/><path fill="#8bcb8f" d="M 1104.527344 489.59375 C 1092.984375 523.144531 1101.144531 540.671875 1116.789062 546.058594 L 1112.453125 560.753906 C 1109.445312 560.074219 1106.441406 559.425781 1103.398438 558.878906 C 1099.265625 558.097656 1095.066406 557.449219 1090.832031 556.902344 C 1087.039062 556.355469 1083.25 555.949219 1079.390625 555.605469 L 1064.53125 481.035156 L 1064.53125 481 L 1051.789062 474.285156 C 1052.0625 473.875 1054.011719 470.703125 1056.984375 465.894531 C 1059.75 461.429688 1063.4375 455.5625 1067.398438 449.1875 L 1067.707031 449.5625 C 1072.589844 456.3125 1082.257812 457.269531 1088.40625 451.644531 C 1090.96875 449.253906 1094.347656 447.960938 1097.796875 447.960938 C 1098.277344 447.960938 1098.722656 447.996094 1099.199219 448.027344 L 1101.660156 448.265625 C 1106.304688 448.746094 1110.878906 446.835938 1113.851562 443.21875 L 1116.789062 439.605469 L 1121.433594 447.722656 L 1123.550781 451.402344 L 1123.550781 451.4375 C 1115.933594 462.859375 1109.070312 476.464844 1104.527344 489.59375 Z M 1104.527344 489.59375 " fill-opacity="1" fill-rule="nonzero"/><g clip-path="url(#4f69979a47)"><path fill="#96b443" d="M 1269.160156 750.441406 L 1082.359375 750.441406 C 1082.359375 740.417969 1093.394531 720.640625 1109.207031 715.390625 C 1125.703125 709.863281 1180.730469 717.878906 1195.449219 708.433594 C 1210.207031 699.023438 1206.449219 680.4375 1220.246094 671.128906 C 1223.664062 668.8125 1227.351562 667.550781 1230.972656 666.9375 C 1241.832031 665.0625 1251.910156 669.289062 1251.910156 669.289062 C 1263.011719 693.429688 1269.160156 720.707031 1269.160156 750.441406 Z M 1269.160156 750.441406 " fill-opacity="1" fill-rule="nonzero"/></g><path fill="#64bccc" d="M 1251.910156 669.289062 C 1251.910156 669.289062 1241.832031 665.0625 1230.972656 666.9375 C 1227.351562 667.550781 1223.664062 668.8125 1220.246094 671.128906 C 1206.449219 680.4375 1210.207031 699.023438 1195.449219 708.433594 C 1180.730469 717.878906 1125.703125 709.863281 1109.207031 715.390625 C 1093.394531 720.640625 1082.359375 740.417969 1082.359375 750.441406 L 1066.101562 750.441406 L 1066.101562 750.339844 C 1066.101562 750.339844 1077.203125 740.042969 1072.695312 729.402344 C 1068.152344 718.796875 1053.089844 713.308594 1044.003906 716.445312 C 1039.289062 718.082031 1036.351562 721.695312 1034.578125 724.800781 C 1032.867188 727.835938 1029.929688 730.015625 1026.480469 730.765625 C 1023.851562 731.347656 1020.707031 732.4375 1017.875 734.484375 C 1011.417969 739.054688 1009.097656 750.238281 1009.097656 750.238281 L 1009.097656 750.441406 L 893.136719 750.441406 L 893.136719 750.339844 C 893.136719 750.339844 891.703125 742.941406 897.097656 739.53125 C 902.496094 736.121094 908.917969 740.382812 913.765625 734.519531 C 918.617188 728.652344 911.375 716.753906 918.992188 711.332031 C 926.609375 705.875 948.332031 716.445312 960.492188 711.023438 C 972.617188 705.601562 972.582031 680.0625 960.492188 669.972656 C 948.402344 659.910156 934.738281 665.195312 928.351562 655.136719 C 921.964844 645.113281 926.710938 635.839844 919.0625 626.15625 C 917.285156 623.90625 915.203125 622.234375 913.082031 621.007812 C 906.355469 617.152344 899.011719 617.664062 898.328125 617.734375 C 903.65625 612.242188 909.328125 607.09375 915.304688 602.253906 C 934.261719 586.941406 956.359375 574.972656 980.609375 566.894531 C 980.300781 567.507812 976.441406 575.621094 973.367188 586.429688 C 968.722656 602.933594 965.921875 625.78125 980.609375 637.917969 C 1005.269531 658.378906 1035.089844 631.714844 1050.355469 633.859375 C 1065.589844 636.007812 1062.855469 651.21875 1084.921875 652.546875 C 1107.019531 653.875 1117.097656 640.75 1135.539062 643.578125 C 1153.949219 646.410156 1165.152344 674.199219 1189.4375 670.855469 C 1212.902344 667.617188 1207.609375 651.25 1214.441406 643.886719 C 1214.714844 643.613281 1214.953125 643.375 1215.226562 643.136719 C 1223.253906 636.179688 1237.292969 643.304688 1237.292969 643.304688 C 1242.859375 651.488281 1247.742188 660.152344 1251.910156 669.289062 Z M 1251.910156 669.289062 " fill-opacity="1" fill-rule="nonzero"/><path fill="#349370" d="M 1237.292969 643.304688 C 1237.292969 643.304688 1223.253906 636.179688 1215.226562 643.136719 C 1214.953125 643.375 1214.714844 643.613281 1214.441406 643.886719 C 1207.609375 651.25 1212.902344 667.617188 1189.4375 670.855469 C 1165.152344 674.199219 1153.949219 646.410156 1135.539062 643.578125 C 1117.097656 640.75 1107.019531 653.875 1084.921875 652.546875 C 1062.855469 651.21875 1065.589844 636.007812 1050.355469 633.859375 C 1035.089844 631.714844 1005.269531 658.378906 980.609375 637.917969 C 965.921875 625.78125 968.722656 602.933594 973.367188 586.429688 C 976.441406 575.621094 980.300781 567.507812 980.609375 566.894531 C 985.972656 565.050781 991.4375 563.449219 997.003906 562.050781 C 1005.679688 559.835938 1014.628906 558.128906 1023.75 556.902344 C 1032.902344 555.640625 1042.261719 554.925781 1051.789062 554.71875 C 1053.636719 554.6875 1055.515625 554.652344 1057.390625 554.652344 C 1064.804688 554.652344 1072.148438 554.957031 1079.386719 555.605469 C 1090.695312 556.59375 1101.726562 558.300781 1112.453125 560.753906 C 1132.636719 565.394531 1151.628906 572.519531 1168.945312 581.964844 C 1193.09375 595.058594 1214.03125 612.585938 1230.390625 633.757812 C 1232.816406 636.863281 1235.105469 640.03125 1237.292969 643.304688 Z M 1237.292969 643.304688 " fill-opacity="1" fill-rule="nonzero"/><path fill="#e5d56d" d="M 1173.761719 565.632812 C 1173.660156 565.597656 1173.589844 565.5625 1173.488281 565.527344 C 1158.5625 560.378906 1150.875 542.921875 1161.292969 509.0625 C 1161.808594 507.460938 1162.351562 505.824219 1162.933594 504.152344 C 1175.707031 467.089844 1204.089844 425.863281 1219.769531 431.253906 C 1232.097656 435.480469 1232.851562 467.363281 1226.359375 498.835938 C 1224.621094 507.324219 1222.332031 515.746094 1219.632812 523.625 C 1218.609375 526.625 1217.550781 529.417969 1216.457031 532.078125 C 1204.089844 562.085938 1188.105469 570.371094 1173.761719 565.632812 Z M 1173.761719 565.632812 " fill-opacity="1" fill-rule="nonzero"/><path fill="#baca49" d="M 1116.789062 546.058594 C 1101.144531 540.671875 1092.984375 523.144531 1104.527344 489.59375 C 1109.070312 476.464844 1115.933594 462.859375 1123.550781 451.4375 L 1123.550781 451.402344 C 1135.4375 433.605469 1149.136719 421.226562 1158.664062 424.5 C 1174.34375 429.855469 1172.804688 475.476562 1161.261719 509.0625 C 1149.679688 542.617188 1132.46875 551.445312 1116.789062 546.058594 Z M 1116.789062 546.058594 " fill-opacity="1" fill-rule="nonzero"/><path fill="#f47a21" d="M 1051.789062 474.285156 L 1064.53125 481 L 1064.53125 481.035156 L 1079.390625 555.605469 C 1072.148438 554.957031 1064.804688 554.652344 1057.390625 554.652344 C 1055.515625 554.652344 1053.636719 554.6875 1051.789062 554.71875 L 1045.78125 521.714844 C 1044.550781 514.960938 1038.675781 510.222656 1032.046875 510.222656 C 1031.230469 510.222656 1030.375 510.289062 1029.519531 510.460938 C 1021.90625 511.824219 1016.847656 519.089844 1018.25 526.691406 L 1023.75 556.902344 C 1014.628906 558.128906 1005.679688 559.835938 997.003906 562.050781 L 983.957031 496.515625 L 1019.375 457.199219 Z M 1051.789062 474.285156 " fill-opacity="1" fill-rule="nonzero"/><path fill="#a7d276" d="M 1072.695312 729.402344 C 1077.203125 740.042969 1066.101562 750.339844 1066.101562 750.339844 L 1066.101562 750.441406 L 1009.097656 750.441406 L 1009.097656 750.238281 C 1009.097656 750.238281 1011.417969 739.054688 1017.875 734.484375 C 1020.707031 732.4375 1023.851562 731.347656 1026.480469 730.765625 C 1029.929688 730.015625 1032.867188 727.835938 1034.578125 724.800781 C 1036.351562 721.695312 1039.289062 718.082031 1044.003906 716.445312 C 1053.089844 713.308594 1068.152344 718.796875 1072.695312 729.402344 Z M 1072.695312 729.402344 " fill-opacity="1" fill-rule="nonzero"/><path fill="#ffa25a" d="M 1045.78125 521.714844 L 1051.789062 554.71875 C 1042.261719 554.925781 1032.902344 555.640625 1023.75 556.902344 L 1018.25 526.691406 C 1016.847656 519.089844 1021.90625 511.824219 1029.519531 510.460938 C 1030.375 510.289062 1031.230469 510.222656 1032.046875 510.222656 C 1038.675781 510.222656 1044.550781 514.960938 1045.78125 521.714844 Z M 1045.78125 521.714844 " fill-opacity="1" fill-rule="nonzero"/><path fill="#5cc096" d="M 960.492188 711.023438 C 948.332031 716.445312 926.609375 705.875 918.992188 711.332031 C 911.375 716.753906 918.617188 728.652344 913.765625 734.519531 C 908.917969 740.382812 902.496094 736.121094 897.097656 739.53125 C 891.703125 742.941406 893.136719 750.339844 893.136719 750.339844 L 893.136719 750.441406 L 845.625 750.441406 C 845.625 700.898438 862.636719 658.242188 891.222656 625.4375 L 891.292969 625.335938 C 893.546875 622.746094 895.902344 620.1875 898.292969 617.734375 C 898.292969 617.734375 898.292969 617.734375 898.328125 617.734375 C 899.011719 617.664062 906.355469 617.152344 913.082031 621.007812 C 915.203125 622.234375 917.285156 623.90625 919.0625 626.15625 C 926.710938 635.839844 921.964844 645.113281 928.351562 655.136719 C 934.738281 665.195312 948.402344 659.910156 960.492188 669.972656 C 972.582031 680.0625 972.617188 705.601562 960.492188 711.023438 Z M 960.492188 711.023438 " fill-opacity="1" fill-rule="nonzero"/><path fill="#a7d276" d="M 909.839844 590.761719 C 902.769531 594.375 894.265625 593.011719 886.203125 585.679688 L 886.167969 585.679688 C 885.210938 583.328125 884.015625 580.941406 882.652344 578.554688 C 879.644531 573.335938 876.09375 568.871094 872.4375 565.394531 C 863.113281 544.832031 860.621094 519.464844 870.765625 514.3125 C 881.523438 508.824219 902.460938 528.226562 913.253906 549.332031 C 924.046875 570.4375 920.597656 585.273438 909.839844 590.761719 Z M 909.839844 590.761719 " fill-opacity="1" fill-rule="nonzero"/><path fill="#96b443" d="M 884.90625 614.355469 C 877.253906 618.757812 863.867188 609.890625 854.984375 594.511719 C 846.105469 579.132812 845.078125 563.109375 852.730469 558.710938 C 857.785156 555.8125 865.335938 558.675781 872.4375 565.394531 C 876.09375 568.871094 879.644531 573.335938 882.652344 578.554688 C 884.015625 580.941406 885.210938 583.328125 886.167969 585.679688 C 891.632812 598.605469 891.359375 610.640625 884.90625 614.355469 Z M 884.90625 614.355469 " fill-opacity="1" fill-rule="nonzero"/><path fill="#604533" d="M 868.824219 586.53125 C 867.1875 587.472656 866.628906 589.566406 867.574219 591.199219 L 888.96875 628.050781 C 889.160156 627.789062 892.339844 624.109375 893.746094 622.566406 L 873.492188 587.769531 C 872.539062 586.144531 870.457031 585.589844 868.824219 586.53125 Z M 868.824219 586.53125 " fill-opacity="1" fill-rule="nonzero"/><path fill="#604533" d="M 912.621094 604.464844 L 890.382812 557.550781 C 889.578125 555.84375 890.304688 553.8125 892.011719 553.007812 C 893.71875 552.207031 895.75 552.933594 896.554688 554.636719 L 916.914062 597.625 C 917.128906 598.082031 917.800781 599.632812 917.949219 600.152344 C 917.949219 600.152344 915.855469 601.8125 915.289062 602.261719 C 914.640625 602.78125 912.621094 604.464844 912.621094 604.464844 Z M 912.621094 604.464844 " fill-opacity="1" fill-rule="nonzero"/><path fill="#604533" d="M 1115.785156 561.550781 L 1109.117188 560.046875 L 1130.410156 488.046875 C 1130.945312 486.238281 1132.847656 485.207031 1134.65625 485.742188 C 1136.464844 486.277344 1137.496094 488.171875 1136.960938 489.976562 Z M 1115.785156 561.550781 " fill-opacity="1" fill-rule="nonzero"/><path fill="#604533" d="M 1172.234375 583.777344 C 1170.101562 582.609375 1168.007812 581.464844 1165.949219 580.351562 L 1189.195312 501.148438 C 1189.730469 499.339844 1191.628906 498.300781 1193.441406 498.835938 C 1195.25 499.367188 1196.285156 501.253906 1195.761719 503.0625 Z M 1172.234375 583.777344 " fill-opacity="1" fill-rule="nonzero"/><g clip-path="url(#608fbd0c6b)"><g clip-path="url(#41d4b79854)"><g clip-path="url(#2759c32b55)"><path fill="#597252" d="M 597.074219 603.074219 C 597.898438 608.179688 594.445312 612.949219 590.808594 616.621094 C 563.589844 644.144531 514.988281 650.601562 500.65625 686.5625 C 497.28125 695.027344 496.320312 704.332031 492.699219 712.695312 C 483.757812 733.351562 461.117188 743.851562 440.359375 752.5625 C 418.238281 761.847656 372.929688 785.484375 348.316406 775.183594 C 327.816406 766.601562 328.929688 734.285156 335 715.984375 C 338.234375 706.242188 343.816406 697.394531 346.972656 687.554688 C 350.976562 675.074219 349.90625 659.488281 355.496094 647.796875 C 368.296875 621.011719 413.316406 618.902344 439.019531 621.414062 C 457.933594 623.265625 476.664062 628.949219 495.589844 627.234375 C 522.371094 624.800781 545.347656 608.082031 569.992188 597.316406 C 579.808594 593.023438 595.363281 592.5 597.074219 603.074219 Z M 626.621094 562.078125 C 615.632812 547.765625 597.039062 537.738281 579.542969 542.167969 C 548.613281 550.003906 541.398438 593.671875 513.132812 608.46875 C 498.890625 615.925781 481.40625 614.597656 466.300781 609.101562 C 451.195312 603.601562 437.816406 594.34375 424.109375 585.941406 C 417.675781 582 410.613281 578.097656 403.089844 578.65625 C 397.800781 579.046875 392.9375 581.617188 388.410156 584.378906 C 352.925781 605.996094 327.75 642.394531 315.382812 682.058594 C 305.621094 713.359375 296.757812 761.566406 309.554688 793.273438 C 322.054688 824.238281 357.089844 816.070312 381.242188 804.417969 C 429.855469 780.964844 478.6875 757.390625 523.203125 726.863281 C 537.902344 716.78125 553.238281 704.121094 555.789062 686.480469 C 557.367188 675.566406 553.789062 663.707031 558.628906 653.800781 C 564.019531 642.777344 577.429688 638.773438 589.363281 635.910156 C 605.746094 631.976562 626.625 632.933594 641.027344 623.15625 C 657.566406 611.925781 635.523438 573.675781 626.621094 562.078125 " fill-opacity="1" fill-rule="nonzero"/></g></g></g><g clip-path="url(#cc7288ab19)"><g clip-path="url(#791f7e7d0e)"><g clip-path="url(#adccc0c610)"><path fill="#fdf4e4" d="M 293.28125 733.453125 C 319.371094 714.355469 344.710938 691.570312 376.402344 685.167969 C 388.789062 682.664062 402.894531 680.21875 415.472656 682.351562 C 417.164062 682.636719 418.96875 683.085938 420.078125 684.394531 C 423.988281 689.019531 415.078125 690.789062 412.585938 691.527344 C 387.230469 699.003906 365.378906 716.222656 346.082031 734.046875 C 342.78125 737.09375 339.523438 740.183594 336.292969 743.296875 C 316.445312 762.425781 297.578125 782.625 276.464844 800.398438 C 274.417969 802.125 272.273438 803.863281 269.710938 804.648438 C 264.953125 806.101562 259.585938 803.78125 256.503906 799.875 C 253.421875 795.96875 252.34375 790.792969 252.441406 785.820312 C 252.671875 774.316406 258.679688 763.570312 266.519531 755.152344 C 274.359375 746.734375 283.996094 740.246094 293.28125 733.453125 Z M 227.648438 744.480469 C 221.789062 750.601562 217.351562 758.390625 216.59375 766.828125 C 215.921875 774.296875 218.140625 781.738281 221.101562 788.628906 C 224.890625 797.445312 229.933594 805.726562 236.035156 813.136719 C 239.707031 817.597656 243.933594 821.863281 249.308594 823.980469 C 260.589844 828.425781 273.199219 822.269531 282.902344 814.996094 C 319.214844 787.777344 340.886719 743.316406 380.0625 720.414062 C 396.253906 710.945312 417.625 702.4375 436.515625 701.378906 C 442.523438 701.042969 449.265625 702.394531 454.503906 698.707031 C 467.117188 689.828125 461.378906 664.613281 446.097656 662.132812 C 424.039062 658.554688 401.320312 662.386719 380.097656 669.378906 C 358.867188 676.363281 338.816406 686.433594 318.5 695.742188 C 294.820312 706.59375 270.625 716.480469 248.066406 729.503906 C 240.734375 733.738281 233.503906 738.363281 227.648438 744.480469 " fill-opacity="1" fill-rule="nonzero"/></g></g></g><path fill="#c77b31" d="M 377.386719 79.152344 L 471.722656 79.152344 L 471.722656 -15.183594 L 377.386719 -15.183594 Z M 377.386719 79.152344 " fill-opacity="1" fill-rule="nonzero"/><path fill="#f4a257" d="M 471.71875 31.980469 C 471.71875 30.4375 471.644531 28.894531 471.492188 27.359375 C 471.34375 25.820312 471.117188 24.296875 470.8125 22.78125 C 470.511719 21.265625 470.136719 19.769531 469.6875 18.289062 C 469.242188 16.8125 468.722656 15.359375 468.128906 13.933594 C 467.539062 12.503906 466.878906 11.109375 466.152344 9.746094 C 465.421875 8.386719 464.628906 7.0625 463.769531 5.777344 C 462.914062 4.492188 461.992188 3.253906 461.015625 2.058594 C 460.035156 0.867188 458.996094 -0.277344 457.90625 -1.371094 C 456.8125 -2.460938 455.671875 -3.5 454.476562 -4.476562 C 453.28125 -5.457031 452.042969 -6.378906 450.757812 -7.234375 C 449.472656 -8.09375 448.148438 -8.886719 446.789062 -9.613281 C 445.425781 -10.34375 444.03125 -11.003906 442.605469 -11.59375 C 441.175781 -12.183594 439.722656 -12.703125 438.246094 -13.152344 C 436.765625 -13.601562 435.269531 -13.976562 433.753906 -14.277344 C 432.242188 -14.578125 430.714844 -14.804688 429.175781 -14.957031 C 427.640625 -15.109375 426.097656 -15.183594 424.554688 -15.183594 C 423.007812 -15.183594 421.46875 -15.109375 419.929688 -14.957031 C 418.394531 -14.804688 416.867188 -14.578125 415.351562 -14.277344 C 413.835938 -13.976562 412.339844 -13.601562 410.863281 -13.152344 C 409.382812 -12.703125 407.929688 -12.183594 406.503906 -11.59375 C 405.078125 -11.003906 403.683594 -10.34375 402.320312 -9.613281 C 400.957031 -8.886719 399.632812 -8.09375 398.347656 -7.234375 C 397.066406 -6.378906 395.824219 -5.457031 394.632812 -4.476562 C 393.4375 -3.5 392.292969 -2.460938 391.203125 -1.371094 C 390.109375 -0.277344 389.074219 0.867188 388.09375 2.058594 C 387.113281 3.253906 386.195312 4.492188 385.335938 5.777344 C 384.476562 7.0625 383.683594 8.386719 382.957031 9.75 C 382.226562 11.109375 381.570312 12.503906 380.976562 13.933594 C 380.386719 15.359375 379.867188 16.8125 379.417969 18.289062 C 378.96875 19.769531 378.59375 21.265625 378.292969 22.78125 C 377.992188 24.296875 377.765625 25.820312 377.613281 27.359375 C 377.460938 28.894531 377.386719 30.4375 377.386719 31.980469 C 377.386719 33.527344 377.460938 35.066406 377.613281 36.605469 C 377.765625 38.144531 377.992188 39.667969 378.292969 41.183594 C 378.59375 42.699219 378.96875 44.195312 379.417969 45.675781 C 379.867188 47.152344 380.386719 48.605469 380.976562 50.03125 C 381.570312 51.460938 382.226562 52.855469 382.957031 54.214844 C 383.683594 55.578125 384.476562 56.902344 385.335938 58.1875 C 386.195312 59.472656 387.113281 60.710938 388.09375 61.90625 C 389.074219 63.097656 390.109375 64.242188 391.203125 65.335938 C 392.292969 66.425781 393.4375 67.460938 394.632812 68.441406 C 395.824219 69.421875 397.066406 70.34375 398.347656 71.199219 C 399.632812 72.058594 400.957031 72.851562 402.320312 73.578125 C 403.683594 74.308594 405.078125 74.96875 406.503906 75.558594 C 407.929688 76.148438 409.382812 76.667969 410.863281 77.117188 C 412.339844 77.566406 413.835938 77.941406 415.351562 78.242188 C 416.867188 78.542969 418.394531 78.769531 419.929688 78.921875 C 421.46875 79.074219 423.007812 79.148438 424.554688 79.148438 C 426.097656 79.148438 427.640625 79.074219 429.175781 78.921875 C 430.714844 78.769531 432.242188 78.542969 433.753906 78.242188 C 435.269531 77.941406 436.765625 77.566406 438.246094 77.117188 C 439.722656 76.667969 441.175781 76.148438 442.605469 75.558594 C 444.03125 74.96875 445.425781 74.308594 446.789062 73.578125 C 448.148438 72.851562 449.472656 72.058594 450.757812 71.199219 C 452.042969 70.34375 453.28125 69.421875 454.476562 68.441406 C 455.671875 67.460938 456.8125 66.425781 457.90625 65.335938 C 458.996094 64.242188 460.035156 63.097656 461.015625 61.90625 C 461.992188 60.710938 462.914062 59.472656 463.769531 58.1875 C 464.628906 56.902344 465.421875 55.578125 466.152344 54.214844 C 466.878906 52.855469 467.539062 51.460938 468.128906 50.03125 C 468.722656 48.605469 469.242188 47.152344 469.6875 45.675781 C 470.136719 44.195312 470.511719 42.699219 470.8125 41.183594 C 471.117188 39.667969 471.34375 38.144531 471.492188 36.605469 C 471.644531 35.066406 471.71875 33.527344 471.71875 31.980469 Z M 471.71875 31.980469 " fill-opacity="1" fill-rule="nonzero"/><g clip-path="url(#7516fbbec8)"><path fill="#728c6a" d="M 377.386719 79.46875 C 325.171875 79.46875 282.839844 37.140625 282.839844 -15.078125 L 377.386719 -15.078125 Z M 377.386719 79.46875 " fill-opacity="1" fill-rule="nonzero"/></g><g clip-path="url(#da32c9b86d)"><path fill="#bdd5cf" d="M 377.386719 79.042969 C 377.386719 131.261719 335.058594 173.589844 282.839844 173.589844 L 282.839844 79.042969 Z M 377.386719 79.042969 " fill-opacity="1" fill-rule="nonzero"/></g><g clip-path="url(#eff889a7b0)"><path fill="#f4a257" d="M 471.828125 173.589844 C 419.609375 173.589844 377.28125 131.261719 377.28125 79.042969 L 471.828125 79.042969 C 471.828125 79.042969 471.828125 173.589844 471.828125 173.589844 Z M 471.828125 173.589844 " fill-opacity="1" fill-rule="nonzero"/></g><path fill="#f4a257" d="M 471.589844 79.285156 C 471.589844 53.175781 492.753906 32.011719 518.863281 32.011719 L 518.863281 79.285156 Z M 471.589844 79.285156 " fill-opacity="1" fill-rule="nonzero"/><g clip-path="url(#f9abb42487)"><path fill="#728c6a" d="M 518.863281 79.285156 C 518.863281 53.175781 540.027344 32.011719 566.136719 32.011719 L 566.136719 79.285156 Z M 518.863281 79.285156 " fill-opacity="1" fill-rule="nonzero"/></g><g clip-path="url(#8827271ce0)"><path fill="#c77b31" d="M 566.136719 32.011719 C 540.027344 32.011719 518.863281 10.84375 518.863281 -15.265625 L 566.136719 -15.265625 Z M 566.136719 32.011719 " fill-opacity="1" fill-rule="nonzero"/></g><path fill="#bdd5cf" d="M 518.863281 32.011719 C 492.753906 32.011719 471.589844 10.84375 471.589844 -15.265625 L 518.863281 -15.265625 Z M 518.863281 32.011719 " fill-opacity="1" fill-rule="nonzero"/><path fill="#bdd5cf" d="M 377.386719 32.011719 C 377.386719 5.902344 398.550781 -15.265625 424.660156 -15.265625 L 424.660156 32.011719 Z M 377.386719 32.011719 " fill-opacity="1" fill-rule="nonzero"/><path fill="#c77b31" d="M 530.753906 108.828125 C 530.753906 107.863281 530.707031 106.90625 530.613281 105.949219 C 530.519531 104.992188 530.378906 104.042969 530.191406 103.097656 C 530.003906 102.15625 529.769531 101.226562 529.488281 100.304688 C 529.210938 99.386719 528.886719 98.480469 528.519531 97.59375 C 528.152344 96.703125 527.742188 95.835938 527.289062 94.988281 C 526.835938 94.140625 526.339844 93.316406 525.804688 92.515625 C 525.273438 91.71875 524.699219 90.945312 524.089844 90.203125 C 523.480469 89.460938 522.835938 88.75 522.15625 88.070312 C 521.476562 87.390625 520.765625 86.742188 520.019531 86.132812 C 519.277344 85.523438 518.507812 84.953125 517.707031 84.417969 C 516.90625 83.882812 516.085938 83.390625 515.234375 82.9375 C 514.386719 82.484375 513.519531 82.074219 512.632812 81.707031 C 511.742188 81.335938 510.839844 81.015625 509.917969 80.734375 C 509 80.457031 508.066406 80.222656 507.125 80.035156 C 506.183594 79.847656 505.230469 79.707031 504.277344 79.613281 C 503.320312 79.519531 502.359375 79.46875 501.398438 79.46875 C 500.4375 79.46875 499.476562 79.519531 498.519531 79.613281 C 497.5625 79.707031 496.613281 79.847656 495.671875 80.035156 C 494.726562 80.222656 493.796875 80.457031 492.875 80.734375 C 491.957031 81.015625 491.050781 81.335938 490.164062 81.707031 C 489.277344 82.074219 488.40625 82.484375 487.558594 82.9375 C 486.710938 83.390625 485.886719 83.882812 485.089844 84.417969 C 484.289062 84.953125 483.519531 85.523438 482.773438 86.132812 C 482.03125 86.742188 481.320312 87.390625 480.640625 88.070312 C 479.960938 88.75 479.316406 89.460938 478.707031 90.203125 C 478.09375 90.945312 477.523438 91.71875 476.988281 92.515625 C 476.457031 93.316406 475.960938 94.140625 475.507812 94.988281 C 475.054688 95.835938 474.644531 96.703125 474.277344 97.59375 C 473.910156 98.480469 473.585938 99.386719 473.304688 100.304688 C 473.027344 101.226562 472.792969 102.15625 472.605469 103.097656 C 472.417969 104.042969 472.277344 104.992188 472.183594 105.949219 C 472.089844 106.90625 472.042969 107.863281 472.042969 108.828125 C 472.042969 109.789062 472.089844 110.746094 472.183594 111.703125 C 472.277344 112.660156 472.417969 113.609375 472.605469 114.554688 C 472.792969 115.496094 473.027344 116.429688 473.304688 117.347656 C 473.585938 118.269531 473.910156 119.171875 474.277344 120.0625 C 474.644531 120.949219 475.054688 121.816406 475.507812 122.664062 C 475.960938 123.511719 476.457031 124.335938 476.988281 125.136719 C 477.523438 125.933594 478.09375 126.707031 478.707031 127.449219 C 479.316406 128.191406 479.960938 128.90625 480.640625 129.585938 C 481.320312 130.265625 482.03125 130.910156 482.773438 131.519531 C 483.519531 132.128906 484.289062 132.699219 485.089844 133.234375 C 485.886719 133.769531 486.710938 134.261719 487.558594 134.714844 C 488.40625 135.167969 489.277344 135.578125 490.164062 135.949219 C 491.050781 136.316406 491.957031 136.640625 492.875 136.917969 C 493.796875 137.199219 494.726562 137.429688 495.671875 137.617188 C 496.613281 137.804688 497.5625 137.945312 498.519531 138.042969 C 499.476562 138.136719 500.4375 138.183594 501.398438 138.183594 C 502.359375 138.183594 503.320312 138.136719 504.277344 138.042969 C 505.230469 137.945312 506.183594 137.804688 507.125 137.617188 C 508.066406 137.429688 509 137.199219 509.917969 136.917969 C 510.839844 136.640625 511.742188 136.316406 512.632812 135.949219 C 513.519531 135.578125 514.386719 135.167969 515.234375 134.714844 C 516.085938 134.261719 516.90625 133.769531 517.707031 133.234375 C 518.507812 132.699219 519.277344 132.128906 520.019531 131.519531 C 520.765625 130.910156 521.476562 130.265625 522.15625 129.585938 C 522.835938 128.90625 523.480469 128.191406 524.089844 127.449219 C 524.699219 126.707031 525.273438 125.933594 525.804688 125.136719 C 526.339844 124.335938 526.835938 123.511719 527.289062 122.664062 C 527.742188 121.816406 528.152344 120.949219 528.519531 120.0625 C 528.886719 119.171875 529.210938 118.269531 529.488281 117.347656 C 529.769531 116.429688 530.003906 115.496094 530.191406 114.554688 C 530.378906 113.609375 530.519531 112.660156 530.613281 111.703125 C 530.707031 110.746094 530.753906 109.789062 530.753906 108.828125 Z M 530.753906 108.828125 " fill-opacity="1" fill-rule="nonzero"/></svg>